<?xml version="1.0" encoding="UTF-8"?>
<svg width="700pt" height="700pt" version="1.1" viewBox="0 0 700 700" xmlns="http://www.w3.org/2000/svg" xmlns:xlink="http://www.w3.org/1999/xlink">
 <g>
  <path d="m204.4 168v224c0 16.336 6.4922 32.004 18.043 43.559 11.555 11.551 27.223 18.043 43.559 18.043h229.6v-347.2h-229.6c-16.336 0-32.004 6.4922-43.559 18.043-11.551 11.555-18.043 27.223-18.043 43.559zm257.6 252h-196c-10.004 0-19.246-5.3359-24.25-14-5-8.6641-5-19.336 0-28 5.0039-8.6641 14.246-14 24.25-14h196zm0-89.602h-196c-9.7383 0-19.34 2.3203-28 6.7773v-169.18c0-7.4258 2.9492-14.547 8.1992-19.801 5.2539-5.25 12.375-8.1992 19.801-8.1992h196z"/>
  <path d="m378 268.8 17.809-32.594 32.59-17.809-32.59-17.805-17.809-32.594-17.809 32.594-32.59 17.805 32.59 17.809z"/>
  <path d="m305.2 302.4 9.9141-18.086 18.086-9.9141-18.086-9.9102-9.9141-18.09-9.9102 18.09-18.09 9.9102 18.09 9.9141z"/>
 </g>
</svg>
